<?xml version="1.0" encoding="utf-8"?>
<!-- Generator: Adobe Illustrator 16.0.0, SVG Export Plug-In . SVG Version: 6.00 Build 0)  -->
<!DOCTYPE svg PUBLIC "-//W3C//DTD SVG 1.1//EN" "http://www.w3.org/Graphics/SVG/1.1/DTD/svg11.dtd">
<svg version="1.1" id="Layer_1" xmlns="http://www.w3.org/2000/svg" xmlns:xlink="http://www.w3.org/1999/xlink" x="0px" y="0px"
	 width="182.371px" height="170.834px" viewBox="0 0 182.371 170.834" enable-background="new 0 0 182.371 170.834"
	 xml:space="preserve">
<path fill-rule="evenodd" clip-rule="evenodd" fill="#F0D1B1" d="M135.214,82.789l0.841-1.43c0,0,0.639-2.222,2.663-3.8
	c-0.643-8.239,5.072-7.869,4.588-0.444c0,0,6.827-5.452,9.308-2.923c8.695,8.863,0.265,16.294-6.446,16.343
	c0,0-3.061,1.579-6.463,1.233L135.214,82.789z"/>
<path fill-rule="evenodd" clip-rule="evenodd" fill="#F0D1B1" d="M48.188,82.789l-0.84-1.43c0,0-0.641-2.222-2.664-3.8
	c0.641-8.239-5.074-7.869-4.59-0.444c0,0-6.826-5.452-9.306-2.923c-8.695,8.863-0.266,16.294,6.446,16.343
	c0,0,3.059,1.579,6.463,1.233L48.188,82.789z"/>
<linearGradient id="SVGID_1_" gradientUnits="userSpaceOnUse" x1="41.6724" y1="120.9409" x2="141.8721" y2="120.9409">
	<stop  offset="0" style="stop-color:#F15B31"/>
	<stop  offset="1" style="stop-color:#B91D84"/>
</linearGradient>
<path fill-rule="evenodd" clip-rule="evenodd" fill="url(#SVGID_1_)" d="M66.474,124.27c0,0-1.382,18.995,9.571,28.072
	c0,0-9.834,3.216-13.092,6.668c-3.207,3.404-0.426,5.321,7.961,7.592c8.338,2.317,17.712,1.086,19.341-5.182
	c1.628-6.266-0.319-28.053,2.642-34.762c2.958,6.709,1.652,28.496,3.278,34.762c1.628,6.268,11.101,7.499,19.438,5.182
	c8.388-2.271,13.358-3.844,10.152-7.248c-3.257-3.452-15.283-7.012-15.283-7.012c10.953-9.077,9.571-28.072,9.571-28.072
	l-3.995-25.458c14.653,3.897,25.754-6.415,25.754-6.415c0.641-7.597-4.095-11.644-4.095-11.644
	c-3.996-0.985-15.145,4.094-15.145,4.094c-10.706-7.056-29.308-10.655-29.308-10.655l0,0c0,0-16.28,4.434-26.988,11.489
	c0,0-15.093-7.009-19.041-6.023c0,0-6.158,4.562-5.519,12.159c0,0,15.068,13.542,28.802,6.995L66.474,124.27z"/>
<path fill-rule="evenodd" clip-rule="evenodd" fill="#F0D1B1" d="M102.934,74.375c-5.524-0.741-9.668-0.741-9.668-0.741
	s-3.406,0-8.142,0.593c0.147,10.361,8.979,11.445,8.979,11.445C101.799,86.067,102.934,74.375,102.934,74.375L102.934,74.375z"/>
<g>
	<path fill-rule="evenodd" clip-rule="evenodd" fill="#F0D1B1" d="M137.095,44.306c-2.957-2.422-7.351-2.015-9.8,0.974
		c-2.423,2.958-1.983,7.376,0.974,9.799c2.959,2.423,7.376,1.983,9.799-0.973C140.517,51.116,140.053,46.729,137.095,44.306
		L137.095,44.306z"/>
	<path fill-rule="evenodd" clip-rule="evenodd" fill="#E2B586" d="M133.338,45.987c-2.177-1.782-5.408-1.482-7.208,0.717
		c-1.783,2.176-1.46,5.426,0.716,7.208c2.176,1.783,5.426,1.46,7.208-0.716C135.855,50.998,135.513,47.771,133.338,45.987
		L133.338,45.987z"/>
</g>
<g>
	<path fill-rule="evenodd" clip-rule="evenodd" fill="#F0D1B1" d="M49.788,44.306c2.958-2.422,7.35-2.015,9.799,0.974
		c2.422,2.958,1.985,7.376-0.974,9.799c-2.958,2.423-7.375,1.983-9.798-0.973C46.365,51.116,46.83,46.729,49.788,44.306
		L49.788,44.306z"/>
	<path fill-rule="evenodd" clip-rule="evenodd" fill="#E2B586" d="M53.545,45.987c2.177-1.782,5.407-1.482,7.208,0.717
		c1.783,2.176,1.459,5.426-0.715,7.208c-2.177,1.783-5.427,1.46-7.208-0.716C51.027,50.998,51.368,47.771,53.545,45.987
		L53.545,45.987z"/>
</g>
<path fill-rule="evenodd" clip-rule="evenodd" fill="#F0D1B1" d="M129.824,34.313c3.603,31.279-10.164,44.946-37.153,45.539
	c-26.886-1.727-40.06-15.985-35.177-47.069C63.317-4.368,125.53-3.036,129.824,34.313L129.824,34.313z"/>
<path fill-rule="evenodd" clip-rule="evenodd" fill="#E2B586" d="M123.41,58.438c-5.231,12.63-17.169,18.502-34.686,18.896
	c-8.188-0.541-15.096-2.219-20.621-5.179c6.016,4.539,14.307,7.056,24.568,7.697c17.468-0.395,29.357-6.217,34.637-18.798
	c1.973-4.588,3.009-10.114,3.059-16.627c0.05-3.109-0.099-6.512-0.542-10.114c-1.283-11.101-7.649-18.996-16.184-23.682
	c6.513,4.786,11.2,11.841,12.237,21.166c0.591,4.934,0.69,9.374,0.443,13.47C125.976,50.248,124.987,54.64,123.41,58.438
	L123.41,58.438z"/>
<g>
	<circle fill="#FFFFFF" cx="76.557" cy="42.836" r="6.608"/>
	<circle fill="#392518" cx="77.196" cy="43.24" r="4.907"/>
	<circle fill="#FFFFFF" cx="78.269" cy="42.005" r="1.351"/>
</g>
<g>
	<circle fill="#FFFFFF" cx="109.074" cy="41.831" r="6.607"/>
	<circle fill="#392518" cx="109.713" cy="42.235" r="4.907"/>
	<circle fill="#FFFFFF" cx="110.786" cy="41" r="1.351"/>
</g>
<path fill="#E2B586" d="M97.087,49.095c0,0,0.325-3.67-3.128-3.611c-3.581,0.064-2.87,4.209-2.87,4.209L97.087,49.095z"/>
<g>
	<defs>
		<path id="SVGID_2_" d="M93.244,71.428c12.135,0.742,14.422-10.472,14.844-15.383c0.102-1.196-0.855-2.215-2.054-2.178
			l-25.17,0.778c-1.206,0.037-2.1,1.124-1.914,2.317C79.643,61.366,82.394,70.762,93.244,71.428z"/>
	</defs>
	<clipPath id="SVGID_3_">
		<use xlink:href="#SVGID_2_"  overflow="visible"/>
	</clipPath>
	<g clip-path="url(#SVGID_3_)">
		<g>
			<path fill="#E7A3C8" d="M93.244,71.428c12.135,0.742,14.422-10.472,14.844-15.383c0.102-1.196-0.855-2.215-2.054-2.178
				l-25.17,0.778c-1.206,0.037-2.1,1.124-1.914,2.317C79.643,61.366,82.394,70.762,93.244,71.428z"/>
		</g>
	</g>
	<g clip-path="url(#SVGID_3_)">
		<path fill="#392518" d="M82.483,65.856c7.189-5.511,16.383-8.319,25.106-6.447c0.27-1.266,0.419-2.43,0.498-3.365
			c0.102-1.196-0.855-2.215-2.054-2.178l-25.17,0.778c-1.206,0.037-2.1,1.124-1.914,2.317
			C79.307,59.229,80.212,62.816,82.483,65.856z"/>
	</g>
</g>
<path fill="#392518" d="M75.507,28.477c-2.065,0.122-3.723,1.008-5.457,2.086c-1.593,0.99-3.336,2.398-3.742,4.301
	c-0.034,0.156-0.093,0.73,0.156,0.767c0.554,0.083,0.979-0.464,1.354-0.832c0.769-0.755,1.679-1.368,2.576-1.953
	c1.769-1.155,3.552-2.212,5.195-3.541C75.719,29.201,75.72,28.464,75.507,28.477z"/>
<path fill="#392518" d="M118.168,30.52c-2.466-2.719-6.018-4.798-9.676-5.294c-0.145-0.019-0.098,0.584,0.008,0.654
	c1.626,1.048,3.265,2.029,4.938,3c1.523,0.885,3.019,1.894,4.737,2.353C118.343,31.278,118.243,30.602,118.168,30.52z"/>
<path fill="#010101" d="M98.395,14.518c0.522,2.162,1.803,4.373,3.935,5.006c-1.797,1.438-4.652,1.315-6.319-0.271
	c-0.252,1.662,0.42,3.364,1.479,4.669c1.06,1.305,2.476,2.268,3.915,3.136c-4.14,0.517-8.472-2.026-10.038-5.893
	c-0.343,0.745-0.57,1.542-0.667,2.356c-3.318-2.085-4.575-7.963-4.896-10.504c-0.522-4.13,1.765-10.153,6.88-9.792
	C97.767,3.583,97.554,11.043,98.395,14.518z"/>
<path fill-rule="evenodd" clip-rule="evenodd" fill="#FFFFFF" d="M93.441,96.413c4.419,0,8,3.581,8,8c0,4.418-3.581,8-8,8
	c-4.419,0-8.001-3.582-8.001-8C85.44,99.994,89.022,96.413,93.441,96.413z M97.47,108.497l0.49,2.285l-2.165-1.135
	c-0.7,0.313-1.476,0.487-2.292,0.487c-3.109,0-5.631-2.527-5.631-5.646s2.522-5.646,5.631-5.646s5.631,2.528,5.631,5.646
	C99.134,106.056,98.497,107.473,97.47,108.497z M93.503,101.724c-1.587,0-2.875,1.291-2.875,2.883s1.288,2.881,2.875,2.881
	s2.873-1.289,2.873-2.881S95.09,101.724,93.503,101.724z"/>
</svg>
