<?xml version="1.0" encoding="utf-8"?>
<!-- Generator: Adobe Illustrator 16.0.0, SVG Export Plug-In . SVG Version: 6.00 Build 0)  -->
<!DOCTYPE svg PUBLIC "-//W3C//DTD SVG 1.1//EN" "http://www.w3.org/Graphics/SVG/1.1/DTD/svg11.dtd">
<svg version="1.1" id="Layer_1" xmlns="http://www.w3.org/2000/svg" xmlns:xlink="http://www.w3.org/1999/xlink" x="0px" y="0px"
	 width="182.371px" height="170.834px" viewBox="0 0 182.371 170.834" enable-background="new 0 0 182.371 170.834"
	 xml:space="preserve">
<path fill="#F7C5B5" d="M21.977,163.623c-1.447,1.34-2.934,2.706-4.752,3.469c-1.82,0.762-4.069,0.809-5.634-0.394
	c-0.689-0.53-1.196-1.258-1.683-1.98c-3.896-5.82-7.039-12.146-9.319-18.768c-0.63-1.83-1.07-4.17,0.392-5.437
	c1.049-0.906,2.613-0.801,3.979-0.559c3.857,0.686,8.654,2.692,12.041,4.663L21.977,163.623z"/>
<path fill="#F7C5B5" d="M164.502,148.082c3.466-1.827,9.154-3.984,13.037-4.508c1.373-0.186,2.941-0.226,3.951,0.726
	c1.408,1.326,0.869,3.646,0.164,5.448c-2.557,6.521-5.961,12.709-10.098,18.36c-0.516,0.701-1.053,1.408-1.766,1.908
	c-1.612,1.136-3.857,0.995-5.643,0.157c-1.786-0.838-3.215-2.267-4.604-3.666"/>
<linearGradient id="SVGID_1_" gradientUnits="userSpaceOnUse" x1="16.5845" y1="125.436" x2="165.7412" y2="125.436">
	<stop  offset="0" style="stop-color:#F15B31"/>
	<stop  offset="1" style="stop-color:#B91D84"/>
</linearGradient>
<path fill="url(#SVGID_1_)" d="M108.159,83.309c25.062-0.416,23.4,35.924,23.4,35.924c2.38,4.618,3.816,9.722,4.194,14.904
	c9.954,3.159,20.566,7.776,29.799,12.656c0.459,0.243-0.047,2.141-0.188,2.639c-1.551,5.515-5.418,18.182-5.826,18.135
	c-13.517-1.525-26.971-3.536-40.42-5.567c-18.789-2.84-56.564-1.187-56.564-1.187c-13.504,1.621-27.049,2.911-40.616,3.868
	c-0.411,0.029-3.743-12.788-5.062-18.362c-0.119-0.505-0.546-2.423-0.078-2.646c9.43-4.487,20.227-8.655,30.305-11.395
	c0.595-5.162,2.243-10.2,4.814-14.716c0,0-2.003-34.253,27.119-34.253H108.159z"/>
<path fill="#F7C5B5" d="M100.303,146.869c-1.225,1.057-2.449,2.113-3.673,3.169c-0.626,0.54-1.306,1.194-1.286,2.021
	c0.02,0.802,0.735,1.449,1.51,1.657c0.774,0.209,1.595,0.08,2.386-0.053c-0.493,2.87-4.38,4.133-4.976,6.982
	c-0.117,0.563-0.051,1.236,0.406,1.586c0.416,0.317,1,0.261,1.511,0.146c2.39-0.536,4.55-2.032,5.894-4.079
	c-1.42,1.24-2.541,2.821-3.242,4.573c-0.209,0.524-0.368,1.166-0.031,1.62c0.197,0.268,0.532,0.405,0.863,0.449
	c1.148,0.15,2.18-0.667,3.021-1.464c1.281-1.211,2.494-2.492,3.632-3.839c0.011,2.445-2.911,4.413-2.315,6.784
	c0.067,0.267,0.191,0.536,0.425,0.68c0.29,0.179,0.665,0.114,0.991,0.015c2.514-0.766,4.152-3.121,5.591-5.323
	c-0.315,0.821-0.63,1.645-0.945,2.466c-0.214,0.557-0.354,1.335,0.17,1.62c0.421,0.229,0.927-0.08,1.292-0.393
	c3.133-2.684,5.086-6.699,5.264-10.82"/>
<g>
	<path fill="#FFFFFF" d="M131.316,119.192l-0.763,4.717l-0.987,4.686l-1.19,4.64l-1.419,4.578l-1.611,4.517l-1.804,4.447
		l-2.021,4.354l-2.219,4.259c-0.137,0.262-0.445,0.375-0.715,0.273l-0.02-0.007l-7.857-2.941c-1.317-0.474-2.607-1.045-3.902-1.598
		l-1.942-0.83c-0.64-0.297-1.253-0.658-1.881-0.984l-1.872-1.004c-0.627-0.337-1.244-0.639-1.868-1.161
		c-0.304-0.259-0.613-0.563-0.828-0.974c-0.06-0.096-0.096-0.21-0.142-0.315l-0.032-0.081l-0.016-0.04l-0.026-0.103l-0.002-0.017
		l-0.021-0.129c-0.018-0.192-0.078-0.3-0.061-0.563c0.016-1.017,0.33-1.604,0.535-2.284l2.707-7.937
		c1.788-5.296,3.693-10.554,5.525-15.833c0.455-1.318,0.895-2.642,1.326-3.967c0.422-1.327,0.846-2.656,1.186-4.007
		c0.369-1.343,0.662-2.706,0.912-4.077c0.103-0.688,0.246-1.373,0.329-2.065l0.225-2.084l-0.098,2.097
		c-0.042,0.699-0.14,1.393-0.216,2.09c-0.189,1.388-0.422,2.773-0.732,4.141c-0.28,1.376-0.645,2.73-1.01,4.084
		c-0.367,1.354-0.793,2.689-1.207,4.027c-1.715,5.322-3.381,10.658-5.15,15.961l-2.635,7.961l-0.313,0.973l-0.104,0.449
		c-0.031,0.147-0.016,0.23-0.041,0.348c-0.04,0.088,0.039,0.321,0.053,0.475l0.022,0.129l0.003,0.017
		c0.02,0.081-0.023-0.092-0.018-0.071l0.01,0.021l0.018,0.04c0.027,0.053,0.037,0.11,0.074,0.161
		c0.108,0.214,0.308,0.412,0.533,0.602c0.451,0.381,1.095,0.708,1.701,1.021l1.832,0.961c0.615,0.312,1.211,0.658,1.842,0.942
		l1.904,0.834c1.271,0.556,2.532,1.129,3.842,1.613l7.822,3.009l-0.734,0.267l2.233-4.193l2.063-4.281l1.907-4.356l1.722-4.436
		l1.534-4.508l1.378-4.562l1.191-4.616L131.316,119.192z"/>
</g>
<path fill="#F7C5B5" d="M83.777,147.023c1.225,1.057,2.449,2.113,3.674,3.169c0.625,0.54,1.305,1.194,1.286,2.021
	c-0.019,0.802-0.737,1.448-1.511,1.657s-1.594,0.079-2.385-0.053c0.492,2.87,4.379,4.133,4.974,6.982
	c0.118,0.563,0.053,1.236-0.405,1.586c-0.415,0.317-1,0.26-1.51,0.146c-2.39-0.537-4.551-2.032-5.895-4.079
	c1.421,1.24,2.542,2.821,3.241,4.572c0.21,0.525,0.37,1.167,0.034,1.621c-0.199,0.268-0.533,0.405-0.864,0.449
	c-1.149,0.15-2.181-0.667-3.022-1.464c-1.281-1.211-2.494-2.492-3.631-3.839c-0.013,2.445,2.91,4.413,2.314,6.784
	c-0.066,0.266-0.191,0.536-0.426,0.68c-0.29,0.178-0.663,0.114-0.989,0.015c-2.516-0.767-4.153-3.121-5.591-5.323
	c0.314,0.821,0.63,1.644,0.945,2.466c0.213,0.557,0.354,1.335-0.17,1.62c-0.422,0.229-0.928-0.08-1.292-0.394
	c-3.134-2.683-5.087-6.698-5.265-10.819"/>
<g>
	<path fill="#FFFFFF" d="M52.765,119.345l1.024,4.667l1.193,4.616l1.377,4.562l1.533,4.508l1.723,4.437l1.907,4.355l2.063,4.282
		l2.233,4.193l-0.735-0.267l7.822-3.01c1.311-0.483,2.571-1.058,3.842-1.612l1.906-0.834c0.63-0.285,1.226-0.631,1.84-0.943
		l1.833-0.96c0.606-0.313,1.249-0.639,1.7-1.021c0.227-0.189,0.426-0.388,0.535-0.602c0.035-0.051,0.046-0.108,0.072-0.161
		l0.019-0.04l0.009-0.02c0.007-0.021-0.036,0.152-0.017,0.071l0.003-0.017l0.021-0.129c0.014-0.153,0.094-0.387,0.054-0.475
		c-0.026-0.117-0.011-0.2-0.042-0.348l-0.104-0.449l-0.313-0.973l-2.634-7.961c-1.771-5.303-3.435-10.639-5.15-15.962
		c-0.415-1.338-0.841-2.673-1.207-4.026c-0.365-1.354-0.73-2.708-1.011-4.084c-0.311-1.367-0.543-2.753-0.732-4.141
		c-0.076-0.697-0.174-1.391-0.217-2.09l-0.098-2.097l0.225,2.084c0.084,0.692,0.227,1.377,0.329,2.065
		c0.251,1.371,0.544,2.734,0.913,4.077c0.34,1.351,0.764,2.68,1.187,4.007c0.431,1.325,0.87,2.647,1.325,3.966
		c1.833,5.28,3.738,10.538,5.526,15.834l2.707,7.937c0.206,0.68,0.519,1.268,0.534,2.283c0.018,0.263-0.043,0.37-0.061,0.563
		l-0.021,0.13l-0.003,0.016l-0.025,0.103l-0.016,0.041l-0.032,0.081c-0.046,0.105-0.082,0.22-0.142,0.315
		c-0.215,0.41-0.525,0.714-0.828,0.973c-0.623,0.522-1.241,0.825-1.869,1.162l-1.871,1.004c-0.628,0.326-1.241,0.688-1.881,0.983
		l-1.943,0.831c-1.295,0.553-2.584,1.124-3.902,1.598l-7.855,2.941l-0.021,0.007c-0.276,0.104-0.582-0.019-0.715-0.273l-2.219-4.259
		l-2.021-4.355l-1.803-4.446l-1.612-4.517l-1.419-4.578l-1.19-4.64l-0.987-4.686L52.765,119.345z"/>
</g>
<path fill-rule="evenodd" clip-rule="evenodd" fill="#F0D1B1" d="M102.81,88.468c-6.936-0.93-12.137-0.93-12.137-0.93
	s-4.275,0-10.221,0.744c0.186,13.006,11.271,14.367,11.271,14.367C101.386,103.146,102.81,88.468,102.81,88.468L102.81,88.468z"/>
<g>
	<path fill-rule="evenodd" clip-rule="evenodd" fill="#F0D1B1" d="M145.694,50.722c-3.713-3.041-9.229-2.529-12.303,1.223
		c-3.041,3.713-2.49,9.26,1.223,12.301c3.715,3.042,9.26,2.49,12.301-1.222C149.989,59.271,149.407,53.764,145.694,50.722
		L145.694,50.722z"/>
	<path fill-rule="evenodd" clip-rule="evenodd" fill="#E2B586" d="M140.978,52.833c-2.732-2.237-6.789-1.86-9.049,0.9
		c-2.238,2.731-1.832,6.812,0.898,9.048c2.732,2.238,6.813,1.833,9.049-0.898C144.138,59.123,143.708,55.071,140.978,52.833
		L140.978,52.833z"/>
</g>
<g>
	<path fill-rule="evenodd" clip-rule="evenodd" fill="#F0D1B1" d="M36.093,50.722c3.713-3.041,9.227-2.529,12.301,1.223
		c3.041,3.713,2.492,9.26-1.223,12.301c-3.713,3.042-9.258,2.49-12.3-1.222C31.797,59.271,32.38,53.764,36.093,50.722L36.093,50.722
		z"/>
	<path fill-rule="evenodd" clip-rule="evenodd" fill="#E2B586" d="M40.81,52.833c2.732-2.237,6.787-1.86,9.049,0.9
		c2.238,2.731,1.832,6.812-0.898,9.048c-2.732,2.238-6.813,1.833-9.049-0.898C37.649,59.123,38.077,55.071,40.81,52.833
		L40.81,52.833z"/>
</g>
<path fill-rule="evenodd" clip-rule="evenodd" fill="#F0D1B1" d="M136.567,38.176c4.521,39.267-12.76,56.423-46.641,57.167
	c-33.752-2.168-50.289-20.067-44.16-59.088C53.077-10.381,131.177-8.709,136.567,38.176L136.567,38.176z"/>
<path fill-rule="evenodd" clip-rule="evenodd" fill="#E2B586" d="M128.515,68.462c-6.566,15.855-21.553,23.227-43.543,23.721
	c-10.279-0.68-18.951-2.786-25.887-6.502c7.553,5.697,17.961,8.857,30.842,9.662c21.928-0.496,36.854-7.805,43.48-23.598
	c2.477-5.76,3.777-12.697,3.84-20.873c0.063-3.902-0.123-8.175-0.68-12.696c-1.611-13.936-9.604-23.846-20.316-29.729
	c8.176,6.008,14.061,14.865,15.361,26.57c0.742,6.193,0.867,11.768,0.557,16.909C131.735,58.181,130.495,63.694,128.515,68.462
	L128.515,68.462z"/>
<g>
	<circle fill="#FFFFFF" cx="69.698" cy="48.877" r="8.295"/>
	<circle fill="#392518" cx="70.5" cy="49.383" r="6.16"/>
	<circle fill="#FFFFFF" cx="71.847" cy="47.833" r="1.696"/>
</g>
<g>
	<circle fill="#FFFFFF" cx="110.518" cy="47.615" r="8.294"/>
	<circle fill="#392518" cx="111.32" cy="48.122" r="6.16"/>
	<circle fill="#FFFFFF" cx="112.667" cy="46.571" r="1.696"/>
</g>
<path fill="#E2B586" d="M95.47,56.734c0,0,0.408-4.607-3.926-4.533c-4.496,0.08-3.604,5.283-3.604,5.283L95.47,56.734z"/>
<g>
	<defs>
		<path id="SVGID_2_" d="M90.646,84.769c15.234,0.932,18.105-13.146,18.635-19.311c0.127-1.502-1.074-2.781-2.578-2.734
			l-31.598,0.977c-1.514,0.047-2.637,1.411-2.402,2.909C73.571,72.138,77.024,83.933,90.646,84.769z"/>
	</defs>
	<clipPath id="SVGID_3_">
		<use xlink:href="#SVGID_2_"  overflow="visible"/>
	</clipPath>
	<g clip-path="url(#SVGID_3_)">
		<g>
			<path fill="#E7A3C8" d="M90.646,84.769c15.234,0.932,18.105-13.146,18.635-19.311c0.127-1.502-1.074-2.781-2.578-2.734
				l-31.598,0.977c-1.514,0.047-2.637,1.411-2.402,2.909C73.571,72.138,77.024,83.933,90.646,84.769z"/>
		</g>
	</g>
	<g clip-path="url(#SVGID_3_)">
		<path fill="#392518" d="M77.138,77.775c9.025-6.918,20.566-10.443,31.518-8.093c0.338-1.589,0.525-3.05,0.625-4.224
			c0.127-1.502-1.074-2.781-2.578-2.734l-31.598,0.977c-1.514,0.047-2.637,1.411-2.402,2.909
			C73.149,69.455,74.286,73.958,77.138,77.775z"/>
	</g>
</g>
<path fill="#392518" d="M68.38,30.851c-2.592,0.152-4.674,1.266-6.85,2.618c-2,1.243-4.188,3.011-4.697,5.399
	c-0.043,0.195-0.117,0.916,0.195,0.963c0.695,0.104,1.229-0.583,1.699-1.044c0.965-0.948,2.107-1.718,3.234-2.452
	c2.221-1.45,4.459-2.777,6.521-4.445C68.646,31.759,68.647,30.834,68.38,30.851z"/>
<path fill="#392518" d="M121.935,33.416c-3.096-3.413-7.555-6.023-12.146-6.646c-0.182-0.023-0.123,0.733,0.01,0.82
	c2.041,1.316,4.098,2.547,6.199,3.766c1.912,1.111,3.789,2.377,5.947,2.954C122.153,34.367,122.028,33.518,121.935,33.416z"/>
<path d="M95.348,14.195c0.656,2.715,2.262,5.49,4.939,6.285c-2.256,1.805-5.842,1.651-7.934-0.34
	c-0.316,2.086,0.527,4.223,1.855,5.861c1.33,1.639,3.109,2.848,4.916,3.938c-5.197,0.648-10.635-2.544-12.602-7.398
	c-0.432,0.936-0.715,1.938-0.838,2.959c-4.166-2.618-5.744-9.996-6.146-13.188c-0.656-5.184,2.215-12.744,8.637-12.293
	C94.559,0.468,94.291,9.833,95.348,14.195z"/>
<path fill-rule="evenodd" clip-rule="evenodd" fill="#FFFFFF" d="M91.631,106.45c5.547,0,10.043,4.497,10.043,10.044
	c0,5.546-4.496,10.043-10.043,10.043c-5.548,0-10.044-4.497-10.044-10.043C81.587,110.947,86.083,106.45,91.631,106.45z
	 M96.688,121.62l0.616,2.869l-2.718-1.424c-0.879,0.393-1.853,0.612-2.878,0.612c-3.903,0-7.069-3.173-7.069-7.088
	s3.166-7.089,7.069-7.089s7.069,3.174,7.069,7.089C98.777,118.557,97.978,120.336,96.688,121.62z M91.708,113.119
	c-1.992,0-3.608,1.62-3.608,3.618s1.616,3.617,3.608,3.617s3.607-1.619,3.607-3.617S93.7,113.119,91.708,113.119z"/>
</svg>
