<?xml version="1.0" encoding="utf-8"?>
<!-- Generator: Adobe Illustrator 16.0.0, SVG Export Plug-In . SVG Version: 6.00 Build 0)  -->
<!DOCTYPE svg PUBLIC "-//W3C//DTD SVG 1.1//EN" "http://www.w3.org/Graphics/SVG/1.1/DTD/svg11.dtd">
<svg version="1.1" id="Layer_1" xmlns="http://www.w3.org/2000/svg" xmlns:xlink="http://www.w3.org/1999/xlink" x="0px" y="0px"
	 width="313.333px" height="122.667px" viewBox="0 0 313.333 122.667" enable-background="new 0 0 313.333 122.667"
	 xml:space="preserve">
<g>
	<path fill="#132949" d="M43.687,62.945H17.402v28.256H4.636V22.674h12.767v28.067h26.284V22.674h12.767v68.526H43.687V62.945z"/>
	<path fill="#132949" d="M70.442,14.883c4.975,0,7.979,3.191,7.979,7.979s-3.004,7.885-7.979,7.885
		c-5.163,0-7.979-3.098-7.979-7.885S65.561,14.883,70.442,14.883z M64.059,36.286h12.767v54.915H64.059V36.286z"/>
	<path fill="#132949" d="M127.329,83.878c-4.037,5.257-10.514,8.448-17.93,8.448c-13.236,0-27.035-10.514-27.035-28.537
		c0-18.211,13.33-28.63,27.223-28.63c7.228,0,13.611,3.191,17.647,8.167v-7.04h12.673v53.507c0,15.396-9.856,27.974-28.349,27.974
		c-14.269,0-23.187-6.664-28.162-15.771l11.265-6.853c4.036,7.416,8.354,10.983,17.084,10.983c9.575,0,15.583-7.51,15.583-15.864
		V83.878z M127.892,63.602c0-9.387-6.946-16.896-16.428-16.896c-9.387,0-16.615,7.416-16.615,16.896
		c0,9.575,7.229,17.085,16.615,17.085C120.945,80.687,127.892,73.083,127.892,63.602z"/>
	<path fill="#132949" d="M146.856,21.735h12.673v21.122c3.755-4.788,9.387-7.698,16.428-7.698c13.799,0,21.778,8.542,21.778,23.468
		v32.573H184.78V60.036c0-8.637-4.13-13.894-12.391-13.894c-7.135,0-12.767,5.351-12.767,14.926v30.133h-12.767V21.735z"/>
</g>
<linearGradient id="SVGID_1_" gradientUnits="userSpaceOnUse" x1="300.7881" y1="33.0659" x2="208.8748" y2="86.1321">
	<stop  offset="0" style="stop-color:#F15B33"/>
	<stop  offset="1" style="stop-color:#B91D85"/>
</linearGradient>
<path fill-rule="evenodd" clip-rule="evenodd" fill="url(#SVGID_1_)" d="M254.832,6.542c29.302,0,53.058,23.756,53.058,53.058
	s-23.756,53.058-53.058,53.058s-53.058-23.756-53.058-53.058S225.53,6.542,254.832,6.542z M281.544,86.684l3.261,15.156
	l-14.359-7.525c-4.645,2.078-9.79,3.235-15.205,3.235c-20.625,0-37.344-16.764-37.344-37.443s16.719-37.443,37.344-37.443
	s37.344,16.764,37.344,37.443C292.584,70.499,288.362,79.9,281.544,86.684z M255.24,41.774c-10.527,0-19.061,8.558-19.061,19.112
	c0,10.557,8.533,19.112,19.061,19.112s19.061-8.556,19.061-19.112C274.301,50.332,265.768,41.774,255.24,41.774z"/>
</svg>
